<svg id="novo" xmlns="http://www.w3.org/2000/svg" viewBox="0 0 152 48"><defs><style>.cls-1{fill:#001d7e;fill-rule:evenodd;}</style></defs><title>logo-dark</title><path class="cls-1" d="M25.36,28.29A17.11,17.11,0,0,1,17,37.06a14.5,14.5,0,0,1-6.2,1.37,11,11,0,0,1-6-1.57,7.52,7.52,0,0,1-3.26-4.72,11.6,11.6,0,0,1-.28-3.85H7.29a8,8,0,0,0,.32,1.94A4.07,4.07,0,0,0,12,33.43q5.12,0,7.63-5.14Zm90.21,0h13.65l.8,9.38h-6.24l-.18-5H113l-3,5h-6l5.84-9.38h5.74Zm-114-2.37c.1-.53.23-1.07.38-1.63a24,24,0,0,1,2.86-6.67,16.61,16.61,0,0,1,8.39-7.13,15.86,15.86,0,0,1,5.43-1,11,11,0,0,1,5.53,1.3q4.6,2.6,3.6,8.46H22a4.51,4.51,0,0,0-1.27-3.58,4.64,4.64,0,0,0-3.34-1.26,8,8,0,0,0-5.85,2.63A15.39,15.39,0,0,0,7.84,24a17.32,17.32,0,0,0-.41,1.94ZM47.8,24.48q-.19.73-.45,1.44H53c.2-.58.38-1.17.54-1.79Q55.49,17,52.5,12.93q-2.67-3.55-8-3.55a16.37,16.37,0,0,0-10.75,4,19.08,19.08,0,0,0-6.16,9.91A26.8,26.8,0,0,0,27,25.92h5.73a15.4,15.4,0,0,1,.43-2.28,14.71,14.71,0,0,1,3.43-6.25,8.52,8.52,0,0,1,6.35-2.94q7.58,0,4.9,10ZM32.69,28.29a7.77,7.77,0,0,0,.56,2.13,5.05,5.05,0,0,0,5.11,3.28,8.08,8.08,0,0,0,5.51-2.36,12.45,12.45,0,0,0,2.4-3.05H52.1a18.83,18.83,0,0,1-5,6.67,15.43,15.43,0,0,1-10.21,3.66q-6.51,0-8.91-4.08a11.08,11.08,0,0,1-1.31-6.25Zm45.58,9.38H72.9l2.51-9.38h5.37l-2.51,9.38ZM76,25.92l1.88-7-3.8,7H69.33l8-15.66h8.25L81.42,25.92Zm-3.2,2.37-5.09,9.38H62.11l0-9.38h5l0,2.05h.07l1.06-2.06ZM62.07,25.92,62,19l-1.85,6.93H54.81L59,10.26h8.45l-.37,15.66Zm-2.52,2.37H54.18l-2.52,9.38H57l2.51-9.38Zm47.65,0h-5.76q-2.52,5.15-7.63,5.14a4.07,4.07,0,0,1-4.36-3.2,8,8,0,0,1-.32-1.94h-6a11.89,11.89,0,0,0,.27,3.85,7.54,7.54,0,0,0,3.27,4.72,11,11,0,0,0,6,1.57,14.44,14.44,0,0,0,6.2-1.37,17.09,17.09,0,0,0,8.34-8.77ZM83.42,25.92h5.84c.1-.62.23-1.26.41-1.94a15.5,15.5,0,0,1,3.72-6.9,8,8,0,0,1,5.85-2.63,4.64,4.64,0,0,1,3.34,1.26,4.54,4.54,0,0,1,1.27,3.58h5.76q1-5.86-3.6-8.46a11,11,0,0,0-5.53-1.3,16,16,0,0,0-5.44,1,16.69,16.69,0,0,0-8.39,7.13,24.23,24.23,0,0,0-2.85,6.67c-.15.56-.28,1.1-.38,1.63Zm39.66-.83-.4-8.66h-.08L117,25.92H111.3l9.75-15.66h6.63L129,25.92h-5.89l0-.83Zm27.38,12.58H131.1l2.51-9.38h5.76l-1.18,4.38H151.8l-1.34,5ZM134.25,25.92l4.19-15.66h5.76L140,25.92Z"/></svg>